HIERARCHY
ROOT Character1_Hips
{
  OFFSET -21.6049 96.2641 -11.9879
  CHANNELS 6 Xposition Yposition Zposition Zrotation Xrotation Yrotation
  JOINT Character1_Spine
  {
    OFFSET 0 8.754 -1.339
    CHANNELS 3 Zrotation Xrotation Yrotation
    JOINT Character1_Spine1
    {
      OFFSET 0 10.855 -0.645
      CHANNELS 3 Zrotation Xrotation Yrotation
      JOINT Character1_LeftShoulder
      {
        OFFSET 1.467 27.745 1.178
        CHANNELS 3 Zrotation Xrotation Yrotation
        JOINT Character1_LeftArm
        {
          OFFSET 18.486 -1.858 0.275
          CHANNELS 3 Zrotation Xrotation Yrotation
          JOINT Character1_LeftForeArm
          {
            OFFSET 31.798 2.36 2.921
            CHANNELS 3 Zrotation Xrotation Yrotation
            JOINT Character1_LeftHand
            {
              OFFSET 29.001 1.642 2.112
              CHANNELS 3 Zrotation Xrotation Yrotation
              End Site
              {
                OFFSET 0.269758 0.141128 0.89614
              }
            }
            JOINT L_Radius_RIGMESH
            {
              OFFSET 0.592911 0.209926 -0.435177
              CHANNELS 3 Zrotation Xrotation Yrotation
              End Site
              {
                OFFSET 0 0 0
              }
            }
          }
          JOINT L_Humerus_RIGMESH
          {
            OFFSET 0.000383861 -0.000257932 -6.47351e-005
            CHANNELS 3 Zrotation Xrotation Yrotation
            End Site
            {
              OFFSET 0 0 0
            }
          }
        }
        JOINT L_Shoulder_RIGMESH
        {
          OFFSET 3.24498e-005 -0.000608592 -0.000527677
          CHANNELS 3 Zrotation Xrotation Yrotation
          End Site
          {
            OFFSET 0 0 0
          }
        }
      }
      JOINT Character1_RightShoulder
      {
        OFFSET -1.467 27.745 1.178
        CHANNELS 3 Zrotation Xrotation Yrotation
        JOINT Character1_RightArm
        {
          OFFSET -18.486 -1.858 0.275
          CHANNELS 3 Zrotation Xrotation Yrotation
          JOINT Character1_RightForeArm
          {
            OFFSET -31.798 2.35964 2.92082
            CHANNELS 3 Zrotation Xrotation Yrotation
            JOINT Character1_RightHand
            {
              OFFSET -29.0007 1.64167 2.112
              CHANNELS 3 Zrotation Xrotation Yrotation
              End Site
              {
                OFFSET 161.773 0.141827 0.896322
              }
            }
            JOINT R_Radius_RIGMESH
            {
              OFFSET 104.095 0.21029 -0.434995
              CHANNELS 3 Zrotation Xrotation Yrotation
              End Site
              {
                OFFSET 0 0 0
              }
            }
          }
          JOINT R_Humerus_RIGMESH
          {
            OFFSET 39.9064 -0.000257932 -6.47351e-005
            CHANNELS 3 Zrotation Xrotation Yrotation
            End Site
            {
              OFFSET 0 0 0
            }
          }
        }
        JOINT R_Shoulder_RIGMESH
        {
          OFFSET -3.24498e-005 -0.000608592 -0.000527677
          CHANNELS 3 Zrotation Xrotation Yrotation
          End Site
          {
            OFFSET 0 0 0
          }
        }
      }
      JOINT Character1_Neck
      {
        OFFSET 0 30.836 0.626
        CHANNELS 3 Zrotation Xrotation Yrotation
        JOINT Character1_Head
        {
          OFFSET 0 8.074 3.498
          CHANNELS 3 Zrotation Xrotation Yrotation
          End Site
          {
            OFFSET 0 -0.00153379 1.54668e-005
          }
        }
        JOINT Neck_RIGMESH
        {
          OFFSET -0.186913 0.321166 -1.40345
          CHANNELS 3 Zrotation Xrotation Yrotation
          End Site
          {
            OFFSET 0 0 0
          }
        }
      }
      JOINT Torso_RIGMESH
      {
        OFFSET 0 -0.000828813 -0.000380861
        CHANNELS 3 Zrotation Xrotation Yrotation
        End Site
        {
          OFFSET 0 0 0
        }
      }
    }
    JOINT Spine_RIGMESH
    {
      OFFSET -0.00268501 0.0142813 0.0584757
      CHANNELS 3 Zrotation Xrotation Yrotation
      End Site
      {
        OFFSET 0 0 0
      }
    }
  }
  JOINT Character1_RightUpLeg
  {
    OFFSET -9.035 -4.63425 1.845
    CHANNELS 3 Zrotation Xrotation Yrotation
    JOINT Character1_RightLeg
    {
      OFFSET -0.919521 -40.345 1.155
      CHANNELS 3 Zrotation Xrotation Yrotation
      JOINT Character1_RightFoot
      {
        OFFSET 1.95452 -45.2655 -4.18888
        CHANNELS 3 Zrotation Xrotation Yrotation
        JOINT Character1_RightToeBase
        {
          OFFSET 1.87056 -6.69517 14.7145
          CHANNELS 3 Zrotation Xrotation Yrotation
          End Site
          {
            OFFSET 0 0 0
          }
        }
        JOINT R_Talus_RIGMESH
        {
          OFFSET 8 -7.75529 4.18888
          CHANNELS 3 Zrotation Xrotation Yrotation
          End Site
          {
            OFFSET 0 0 0
          }
        }
      }
      JOINT R_Tibia_RIGMESH
      {
        OFFSET 0 0 0
        CHANNELS 3 Zrotation Xrotation Yrotation
        End Site
        {
          OFFSET 0 0 0
        }
      }
    }
    JOINT R_Femur_RIGMESH
    {
      OFFSET 0 0 0
      CHANNELS 3 Zrotation Xrotation Yrotation
      End Site
      {
        OFFSET 0 0 0
      }
    }
  }
  JOINT Character1_LeftUpLeg
  {
    OFFSET 9.035 -4.63425 1.845
    CHANNELS 3 Zrotation Xrotation Yrotation
    JOINT Character1_LeftLeg
    {
      OFFSET 0.919521 -40.345 1.155
      CHANNELS 3 Zrotation Xrotation Yrotation
      JOINT Character1_LeftFoot
      {
        OFFSET -1.95452 -45.2655 -4.18888
        CHANNELS 3 Zrotation Xrotation Yrotation
        JOINT Character1_LeftToeBase
        {
          OFFSET -1.87056 -6.69517 14.7145
          CHANNELS 3 Zrotation Xrotation Yrotation
          End Site
          {
            OFFSET 0 0 0
          }
        }
        JOINT L_Talus_RIGMESH
        {
          OFFSET -8 -7.75529 4.18888
          CHANNELS 3 Zrotation Xrotation Yrotation
          End Site
          {
            OFFSET 0 0 0
          }
        }
      }
      JOINT L_Tibia_RIGMESH
      {
        OFFSET 0 0 0
        CHANNELS 3 Zrotation Xrotation Yrotation
        End Site
        {
          OFFSET 0 0 0
        }
      }
    }
    JOINT L_Femur_RIGMESH
    {
      OFFSET 0 0 0
      CHANNELS 3 Zrotation Xrotation Yrotation
      End Site
      {
        OFFSET 0 0 0
      }
    }
  }
  JOINT Pelvis_RIGMESH
  {
    OFFSET 0 0 0
    CHANNELS 3 Zrotation Xrotation Yrotation
    End Site
    {
      OFFSET 0 0 0
    }
  }
}
MOTION
Frames:	8
Frame Time:	0.00833333
-24.3682 93.9496 -14.0863 2.83369 2.83815 6.79061 -1.49089e-016 7.95139e-016 1.59028e-015 -4.60167 -1.45478 -3.37533 19.4587 -8.11036 7.37291 -36.3923 -18.5087 3.8219 -0.0544903 -0.0587157 -26.3402 20.261 3.40859 -9.58006 -0 0 1.59028e-015 -3.18055e-015 6.36111e-015 -2.38542e-015 -6.75868e-015 0 1.59028e-015 -17.8424 -17.3821 -3.46343 32.1098 1.49457 -4.3115 0.0226945 -0.0144085 27.3991 -16.3915 23.177 0.814562 -7.95139e-016 4.77083e-015 -3.18055e-015 9.93923e-016 1.59028e-015 -1.59028e-015 -1.54058e-015 0 -2.18663e-015 2.29845e-016 -9.93923e-017 -7.95139e-016 5.7276 -5.94742 -3.40967 0.902059 12.5031 2.79187 2.29845e-016 -9.93923e-017 -7.95139e-016 -1.68393 1.85996 1.52312 0.514203 -20.6194 -12.5856 -0.0278188 33.2269 0.15853 -6.15649 -17.9261 -2.90877 0.0029506 -13.014 -0.0116615 -2.23633e-016 3.97569e-016 -0 -7.95139e-016 3.18055e-015 -0 1.98785e-016 6.36111e-015 1.59028e-015 20.2707 -48.086 12.8275 -0.0649313 49.293 -0.0603115 1.25594 -8.68614 7.93862 -4.35696e-005 -14.8453 -0.00596373 3.97569e-016 1.98785e-015 -0 -3.37934e-015 7.95139e-016 -0 -3.18055e-015 -3.18055e-015 1.59028e-015 -1.49089e-016 7.95139e-016 1.59028e-015 
-24.2732 94.0276 -14.0665 2.93435 2.86855 6.6688 -3.97569e-016 0 7.95139e-016 -4.40861 -1.5159 -3.29143 19.463 -8.14919 7.36818 -36.3028 -18.5419 3.88134 -0.0546314 -0.0586456 -26.478 20.2634 3.32886 -9.58434 1.59028e-015 0 -0 -2.38542e-015 0 -7.95139e-016 -1.98785e-016 7.95139e-016 1.59028e-015 -17.7995 -17.3823 -3.45299 32.0781 1.46652 -4.22907 0.022685 -0.0144134 27.3616 -16.3313 23.177 0.814562 0 3.18055e-015 -0 3.37934e-015 0 -0 1.40392e-015 3.18055e-015 1.44119e-015 2.60905e-016 9.93923e-017 -7.95139e-016 5.65234 -5.94768 -3.36628 0.9214 12.5021 2.80504 2.60905e-016 9.93923e-017 -7.95139e-016 -1.67487 1.84101 1.56245 0.393636 -20.5039 -12.4919 -0.0271008 33.0093 0.158138 -6.07769 -17.8473 -2.84447 0.00295882 -12.9746 -0.0116597 9.93923e-017 3.97569e-016 -7.95139e-016 2.78299e-015 0 -0 -3.97569e-016 0 -7.95139e-016 20.4982 -48.0573 13.0788 -0.0646874 49.4437 -0.0604966 1.29643 -8.67095 7.9943 -4.35696e-005 -14.8453 -0.00596373 -5.56597e-015 3.97569e-016 3.18055e-015 1.98785e-015 -7.95139e-016 -1.59028e-015 1.59028e-015 0 4.77083e-015 -3.97569e-016 0 7.95139e-016 
-24.1777 94.1045 -14.0436 3.02921 2.89623 6.55268 1.98785e-016 0 1.59028e-015 -4.20654 -1.57596 -3.21294 19.4678 -8.19563 7.36074 -36.216 -18.5773 3.94762 -0.0547689 -0.0585769 -26.6125 20.2645 3.23369 -9.58976 -3.18055e-015 0 -1.59028e-015 -3.97569e-015 3.18055e-015 -1.59028e-015 3.97569e-015 7.95139e-016 -1.59028e-015 -17.7603 -17.3824 -3.4444 32.0482 1.43734 -4.14397 0.0226749 -0.0144186 27.3212 -16.2593 23.177 0.814562 2.38542e-015 0 -3.18055e-015 7.95139e-016 0 -7.95139e-016 2.34814e-015 0 -9.93923e-016 3.97569e-016 9.93923e-017 -3.97569e-016 5.57012 -5.94958 -3.32733 0.940468 12.5036 2.82238 3.97569e-016 9.93923e-017 -3.97569e-016 -1.66544 1.82189 1.60173 0.282315 -20.4218 -12.3922 -0.026504 32.8276 0.157814 -6.00292 -17.7684 -2.79209 0.00296771 -12.932 -0.0116577 4.96962e-017 0 7.95139e-016 1.78906e-015 -6.36111e-015 2.38542e-015 5.96354e-016 0 1.59028e-015 20.7339 -48.0285 13.3257 -0.0657425 49.596 -0.0606854 1.33256 -8.65652 8.05121 -4.35696e-005 -14.8453 -0.00596373 -1.78906e-015 7.95139e-016 3.18055e-015 -4.96962e-015 -7.95139e-016 -3.18055e-015 3.18055e-015 -6.36111e-015 1.59028e-015 1.98785e-016 0 1.59028e-015 
-24.0817 94.1801 -14.0177 3.12202 2.92148 6.44495 2.48481e-016 -3.97569e-016 -0 -3.99949 -1.6346 -3.13923 19.47 -8.2409 7.35096 -36.1477 -18.618 4.01015 -0.0549013 -0.0585104 -26.742 20.2648 3.15395 -9.59491 -8.82781e-032 3.18055e-015 1.59028e-015 1.59028e-015 3.18055e-015 -3.18055e-015 -7.35503e-015 2.38542e-015 -1.59028e-015 -17.7266 -17.3867 -3.43864 32.021 1.40902 -4.06233 0.022665 -0.0144237 27.282 -16.199 23.177 0.814562 -7.95139e-016 4.77083e-015 -3.18055e-015 -3.97569e-016 3.18055e-015 -7.95139e-016 2.38542e-015 0 -1.19271e-015 0 9.93923e-017 -0 5.47798 -5.9566 -3.289 0.960083 12.5001 2.83139 0 9.93923e-017 -0 -1.65668 1.80313 1.64111 0.171583 -20.3272 -12.2971 -0.0258843 32.6381 0.157479 -5.92837 -17.6918 -2.74517 0.0029756 -12.8942 -0.0116559 -1.49089e-016 7.95139e-016 7.95139e-016 3.97569e-016 6.36111e-015 -7.95139e-016 9.93923e-016 -3.18055e-015 1.59028e-015 20.9728 -47.9994 13.5701 -0.0678903 49.7468 -0.0608738 1.36602 -8.64221 8.10599 -4.39477e-005 -14.8488 -0.00596382 9.93923e-016 1.98785e-015 -0 1.59028e-015 -7.95139e-016 -3.18055e-015 4.77083e-015 6.36111e-015 -0 2.48481e-016 -3.97569e-016 -0 
-23.9854 94.2541 -13.9889 3.21649 2.94459 6.34834 -1.98785e-016 0 -0 -3.79147 -1.69146 -3.06984 19.4722 -8.27622 7.3392 -36.1124 -18.6674 4.06406 -0.0550322 -0.0584443 -26.8702 20.2648 3.1205 -9.59843 -3.18055e-015 0 -0 1.59028e-015 -3.18055e-015 7.95139e-016 -3.18055e-015 -1.59028e-015 3.18055e-015 -17.6997 -17.3921 -3.43651 31.9975 1.38333 -3.99287 0.0226572 -0.0144277 27.2512 -16.1737 23.1734 0.815318 2.38542e-015 1.59028e-015 3.18055e-015 -2.98177e-015 -1.59028e-015 7.95139e-016 3.80176e-015 0 8.44835e-016 4.34841e-017 0 -3.97569e-016 5.37263 -5.96275 -3.24826 0.981061 12.4841 2.8196 4.34841e-017 0 -3.97569e-016 -1.64965 1.78526 1.68074 0.0532087 -20.1941 -12.2167 -0.0251652 32.4173 0.157092 -5.85021 -17.6207 -2.69729 0.00298084 -12.8691 -0.0116548 2.98177e-016 -3.97569e-016 -1.59028e-015 2.5842e-015 3.18055e-015 -7.95139e-016 -2.18663e-015 -6.36111e-015 -0 21.1964 -47.9757 13.8035 -0.0705501 49.8994 -0.0610662 1.39844 -8.62768 8.1553 -4.40521e-005 -14.8498 -0.00596385 1.19271e-015 3.97569e-016 -6.36111e-015 -2.98177e-015 -7.95139e-016 -1.59028e-015 4.77083e-015 -3.18055e-015 1.59028e-015 -1.98785e-016 0 -0 
-23.8896 94.3264 -13.9566 3.3115 2.96407 6.26617 -9.93923e-017 0 -0 -3.57822 -1.74435 -3.00588 19.4785 -8.30272 7.32303 -36.1019 -18.7391 4.11074 -0.0551605 -0.0583791 -26.9961 20.2505 3.12234 -9.60019 1.59028e-015 0 3.18055e-015 2.38542e-015 0 -0 9.93923e-016 0 -3.18055e-015 -17.6846 -17.4 -3.43943 31.9803 1.36073 -3.93742 0.0226513 -0.0144308 27.2275 -16.2271 23.0494 0.86101 1.59028e-015 -3.18055e-015 -3.18055e-015 3.97569e-015 1.59028e-015 1.59028e-015 -4.77083e-015 3.18055e-015 -1.73937e-015 0 9.93923e-017 -0 5.24896 -5.96103 -3.22209 1.0019 12.4487 2.77917 0 9.93923e-017 -0 -1.64725 1.76882 1.72207 -0.0689668 -20.0928 -12.15 -0.0245687 32.2333 0.156773 -5.76919 -17.5551 -2.65056 0.00298327 -12.8574 -0.0116542 9.93923e-017 0 -0 2.78299e-015 -3.18055e-015 -0 1.98785e-016 0 -1.59028e-015 21.4063 -47.9516 14.0237 -0.0735522 50.0511 -0.061259 1.43036 -8.61206 8.1978 -4.31979e-005 -14.8419 -0.00596363 1.19271e-015 -2.78299e-015 6.36111e-015 -3.97569e-016 1.59028e-015 1.59028e-015 -0 -6.36111e-015 -0 -9.93923e-017 0 -0 
-23.7941 94.3972 -13.9207 3.4045 2.97974 6.19663 2.98177e-016 -3.97569e-016 -7.95139e-016 -3.35713 -1.79352 -2.94769 19.4866 -8.32625 7.30221 -36.0966 -18.8311 4.15354 -0.0552839 -0.058316 -27.1173 20.2165 3.12672 -9.60151 8.82781e-032 -3.18055e-015 1.59028e-015 -2.38542e-015 -3.18055e-015 1.59028e-015 9.93923e-016 2.38542e-015 1.59028e-015 -17.6804 -17.41 -3.4464 31.969 1.34001 -3.89092 0.0226461 -0.0144335 27.207 -16.3585 22.7511 0.968659 3.18055e-015 0 -0 -3.18055e-015 -1.59028e-015 -7.95139e-016 4.28629e-015 0 4.96962e-016 -6.83322e-017 0 3.97569e-016 5.10859 -5.93649 -3.22403 1.02265 12.3994 2.71828 -6.83322e-017 0 3.97569e-016 -1.64804 1.7534 1.76457 -0.191812 -19.9738 -12.0932 -0.0226386 32.0371 0.153991 -5.68772 -17.4929 -2.60918 0.00298434 -12.8523 -0.011654 -5.51738e-033 -3.97569e-016 -7.95139e-016 1.39149e-015 -1.59028e-015 -0 -1.78906e-015 0 7.95139e-016 21.6131 -47.928 14.235 -0.0771822 50.201 -0.0614512 1.46067 -8.59565 8.23571 -4.11581e-005 -14.8229 -0.00596311 1.78906e-015 3.97569e-016 3.18055e-015 9.93923e-016 0 -0 1.59028e-015 3.18055e-015 -0 2.98177e-016 -3.97569e-016 -7.95139e-016 
-23.6978 94.4667 -13.8821 3.49716 2.9938 6.13474 0 0 -7.95139e-016 -3.13457 -1.8422 -2.89362 19.4959 -8.34512 7.28038 -36.0937 -18.9226 4.19166 -0.0554052 -0.0582537 -27.2366 20.1758 3.13196 -9.60237 -3.53113e-031 -6.36111e-015 -3.18055e-015 7.95139e-016 -6.36111e-015 -3.97569e-015 2.98177e-015 0 -1.59028e-015 -17.6794 -17.4199 -3.45472 31.9593 1.3205 -3.84986 0.022642 -0.0144356 27.1907 -16.5249 22.3721 1.09673 7.95139e-016 0 -0 1.59028e-015 -1.59028e-015 7.95139e-016 -2.14936e-015 6.36111e-015 7.20594e-016 -0 -9.93923e-017 -0 4.95833 -5.90008 -3.24418 1.04649 12.3477 2.64847 -0 -9.93923e-017 -0 -1.6466 1.73809 1.80534 -0.316951 -19.8463 -12.0429 -0.0208702 31.8378 0.151282 -5.60478 -17.4344 -2.57007 0.00298476 -12.8503 -0.0116539 -4.96962e-017 3.97569e-016 7.95139e-016 -1.98785e-016 4.77083e-015 -0 -3.97569e-016 3.18055e-015 -0 21.8133 -47.9057 14.4399 -0.0798145 50.3526 -0.0616471 1.48857 -8.57968 8.27106 -3.87235e-005 -14.8003 -0.00596249 7.7526e-015 0 6.36111e-015 2.18663e-015 0 3.18055e-015 -1.59028e-015 -6.36111e-015 -0 0 0 -7.95139e-016 
